<svg width="41" height="40" viewBox="0 0 41 40" fill="none" xmlns="http://www.w3.org/2000/svg">
<path d="M34.9434 0H6.58365C3.34378 0 0.708008 2.62848 0.708008 5.85938V34.1406C0.708008 37.3715 3.34378 40 6.58365 40H34.9434C38.1833 40 40.819 37.3715 40.819 34.1406V5.85938C40.819 2.62848 38.1833 0 34.9434 0ZM38.4688 34.1406C38.4688 36.0791 36.8873 37.6562 34.9434 37.6562H6.58365C4.63979 37.6562 3.05826 36.0791 3.05826 34.1406V5.85938C3.05826 3.9209 4.63979 2.34375 6.58365 2.34375H34.9434C36.8873 2.34375 38.4688 3.9209 38.4688 5.85938V34.1406Z" fill="#070707" stroke="#070707" stroke-width="0.5"/>
</svg>
