<svg width="75" height="75" viewBox="0 0 75 75" fill="none" xmlns="http://www.w3.org/2000/svg">
<path d="M10.5248 11.4503C4.53315 17.6548 0.863513 25.7351 0.13427 34.3295C-0.594973 42.9239 1.66076 51.5069 6.52133 58.6322C11.3819 65.7576 18.5501 70.9895 26.8181 73.4464C35.086 75.9034 43.9482 75.435 51.9111 72.1204C59.8741 68.8057 66.4509 62.8474 70.5334 55.2494C74.6159 47.6515 75.9545 38.8785 74.3234 30.4088C72.6924 21.9392 68.1916 14.2907 61.5794 8.75225C54.9672 3.21382 46.6479 0.124056 38.0235 0.00365383L37.9711 3.75329C45.7331 3.86165 53.2205 6.64243 59.1714 11.627C65.1224 16.6116 69.1732 23.4953 70.6411 31.118C72.109 38.7407 70.9043 46.6364 67.2301 53.4745C63.5558 60.3126 57.6367 65.6751 50.47 68.6583C43.3034 71.6415 35.3274 72.063 27.8863 69.8518C20.4451 67.6406 13.9937 62.9318 9.61919 56.519C5.24468 50.1062 3.21452 42.3815 3.87084 34.6465C4.52716 26.9116 7.82983 19.6393 13.2223 14.0553L10.5248 11.4503Z" fill="url(#paint0_linear_1_71)"/>
<defs>
<linearGradient id="paint0_linear_1_71" x1="26.5" y1="-7.5" x2="5.5" y2="64" gradientUnits="userSpaceOnUse">
<stop stop-color="#00D4BE"/>
<stop offset="0.1875" stop-color="#1AE780"/>
<stop offset="0.833333" stop-color="#1AE780"/>
<stop offset="1" stop-color="#00D4BE"/>
</linearGradient>
</defs>
</svg>
